<?xml version="1.0" encoding="UTF-8"?>
<svg width="700pt" height="700pt" version="1.1" viewBox="0 0 700 700" xmlns="http://www.w3.org/2000/svg" xmlns:xlink="http://www.w3.org/1999/xlink">
 <g>
  <path d="m397.43 524.83h-1.1758c-1.8828 0.17188-3.75-0.45703-5.1445-1.7266-1.3945-1.2734-2.1914-3.0781-2.1914-4.9648 0-1.8906 0.79688-3.6914 2.1914-4.9648 1.3945-1.2734 3.2617-1.8984 5.1445-1.7266h1.1211-0.003906c10.844-0.023438 21.621-1.668 31.977-4.875 3.5273-1.082 7.2617 0.89844 8.3438 4.4258 1.082 3.5273-0.89844 7.2617-4.4219 8.3438-11.609 3.6055-23.688 5.4531-35.84 5.4883zm-35.895-6.6641h-0.003906c-0.85938-0.011719-1.707-0.16406-2.5195-0.44922-11.988-4.8086-22.73-12.277-31.414-21.84-1.5312-1.2305-2.4414-3.0781-2.4844-5.043-0.046876-1.9648 0.78125-3.8477 2.2578-5.1484 1.4727-1.3008 3.4492-1.8828 5.3906-1.5898 1.9453 0.29297 3.6602 1.4258 4.6914 3.1016 7.3438 8.0547 16.418 14.332 26.543 18.367 3.0039 1.1641 4.75 4.3047 4.1445 7.4688-0.60547 3.1641-3.3867 5.4414-6.6094 5.4141zm101.86-13.887h-0.003906c-2.9219-0.007812-5.5078-1.9062-6.3906-4.6953-0.88281-2.7852 0.14063-5.8242 2.5273-7.5156 9.1602-6.1953 17.031-14.105 23.184-23.293 2.0273-3.0938 6.1758-3.9609 9.2695-1.9336s3.957 6.1758 1.9336 9.2695c-7.0742 10.625-16.148 19.773-26.715 26.934-1.1016 0.81641-2.4375 1.25-3.8086 1.2344zm36.793-58.297h-0.67578c-1.7656-0.15625-3.3945-1.0156-4.5234-2.3828-1.125-1.3711-1.6562-3.1328-1.4688-4.8984 0.20703-2.1406 0.30078-4.2891 0.28125-6.4375-0.074219-8.7539-1.6484-17.43-4.6484-25.648-0.89844-3.375 0.93359-6.875 4.2148-8.0547 3.2852-1.1836 6.9297 0.34375 8.3867 3.5156 3.5977 9.6641 5.4922 19.875 5.5977 30.188-0.046875 2.5625-0.23438 5.125-0.55859 7.6719-0.31641 3.4141-3.1758 6.0312-6.6094 6.0469zm-21.395-66.137c-2.2031 0.050782-4.2891-0.97266-5.6016-2.7422-6.8516-9.2031-14.496-17.785-22.848-25.648-2.7227-2.5078-2.8984-6.7422-0.39062-9.4648 2.5039-2.7227 6.7422-2.8984 9.4648-0.39063 8.9609 8.3945 17.152 17.578 24.469 27.438 2.168 2.9883 1.5156 7.1641-1.4531 9.3516-1.0469 0.83203-2.3125 1.3398-3.6406 1.457zm-51.129-49.449c-1.5781 0.011718-3.1094-0.54688-4.3125-1.5664-9.3906-7.875-18.117-16.512-26.094-25.816-2.3828-2.8125-2.0312-7.0273 0.78125-9.4062 2.8164-2.3828 7.0273-2.0312 9.4102 0.78125 7.5117 8.7109 15.715 16.801 24.527 24.195 2.1211 1.8203 2.8906 4.7695 1.9336 7.3984-0.96094 2.6289-3.4492 4.3867-6.2461 4.4141zm-44.801-54.602v0.003906c-2.5977 0-4.957-1.5078-6.0469-3.8633-5.6133-11.488-8.8867-23.977-9.6328-36.738-0.15625-3.6914 2.6953-6.8164 6.3828-7 3.6836-0.12891 6.7891 2.707 7 6.3867 0.60547 10.996 3.4258 21.758 8.2891 31.637 0.76562 1.6055 0.85938 3.4453 0.25781 5.1172-0.59766 1.6719-1.8398 3.0352-3.4492 3.7891-0.89844 0.39844-1.875 0.58984-2.8555 0.55859zm-2.5195-68.879v0.003906c-0.90625-0.003906-1.8008-0.19531-2.6328-0.5625-3.3711-1.4844-4.918-5.4062-3.4727-8.793 5.125-11.59 12.25-22.188 21.059-31.301 2.6016-2.3242 6.5469-2.2695 9.082 0.12109 2.5391 2.3906 2.8242 6.3281 0.66016 9.0625-7.75 7.9805-14.023 17.27-18.535 27.438-1.0977 2.4375-3.5469 3.9766-6.2148 3.9219zm47.434-51.742c-2.2734 0.003907-4.3867-1.1602-5.6016-3.0781-1.9648-3.1289-1.0391-7.2539 2.0742-9.2422 10.441-6.5469 21.484-12.078 32.98-16.52 3.2227-0.66406 6.4492 1.1016 7.6289 4.168 1.1836 3.0703-0.03125 6.543-2.8672 8.207-10.688 4.1055-20.945 9.2461-30.633 15.344-1.0977 0.66797-2.3555 1.0156-3.6406 1.0078zm65.969-25.762c-3.4492 0.011719-6.332-2.6133-6.6523-6.043-0.32031-3.4336 2.0312-6.543 5.418-7.1719 12.082-2.4297 24.359-3.7422 36.68-3.918 3.4609 0.31641 6.1094 3.2188 6.1094 6.6914s-2.6484 6.375-6.1094 6.6914c-11.469 0.13672-22.902 1.3164-34.16 3.5273z"/>
  <path d="m543.65 163.52c-2.8789 0.03125-5.4531-1.7852-6.3828-4.5117-0.92969-2.7266-0.003906-5.7383 2.293-7.4727l39.199-30.129-37.574-31.805c-2.4805-2.4648-2.6523-6.418-0.40234-9.0938 2.25-2.6758 6.1758-3.1758 9.0273-1.1562l43.902 36.961c1.5547 1.2969 2.4258 3.2383 2.3516 5.2617-0.03125 2.0195-0.98047 3.9141-2.5742 5.1523l-45.809 35.672c-1.1797 0.8125-2.6016 1.207-4.0312 1.1211z"/>
  <path d="m352.3 458.81c-11.547-5.5078-23.887-9.1523-36.57-10.809v-226.41c0.058594-0.39062 0.058594-0.78906 0-1.1797v-127.57c6.3086-2.1328 11.219-7.1445 13.227-13.492 2.0078-6.3477 0.86719-13.27-3.0664-18.641-3.9336-5.3672-10.195-8.543-16.852-8.543s-12.914 3.1758-16.848 8.543c-3.9336 5.3711-5.0742 12.293-3.0664 18.641 2.0039 6.3477 6.918 11.359 13.223 13.492v6.7773c-19.207-10.922-60.648-26.824-99.625 7.8398-44.801 39.93-90.887 19.434-92.793 18.535h0.003907c-2.8867-1.3867-6.3477-0.53125-8.25 2.043-1.9023 2.5742-1.707 6.1367 0.46484 8.4844l25.816 28.84-23.242 23.074c-1.3008 1.3047-2.0078 3.0859-1.957 4.9258 0.042969 1.8359 0.83203 3.5742 2.1836 4.8164 0.50391 0.44922 51.969 45.809 105.39 7.7852 19.32-13.719 37.91-18.031 55.441-12.938 15.215 5.0195 28.168 15.254 36.566 28.898v226.07c-13.219 2.0508-25.875 6.7969-37.184 13.945-2.4883 1.6016-3.6172 4.6562-2.7773 7.4961 0.84375 2.8359 3.457 4.7773 6.418 4.7656 1.2891 0.011719 2.5586-0.35547 3.6406-1.0625 0 0 18.871-12.207 36.23-12.207 13.062 0.77734 25.848 4.1055 37.633 9.7969 3.25 1.3203 6.9648-0.085937 8.5352-3.2227 1.5664-3.1367 0.46094-6.9492-2.543-8.7578zm-43.289-393.12c3.0391-0.023438 5.793 1.793 6.9727 4.5938 1.1797 2.8008 0.55078 6.0391-1.5898 8.1953-2.1406 2.1602-5.375 2.8125-8.1836 1.6523-2.8125-1.1562-4.6484-3.8984-4.6484-6.9375 0-4.1211 3.3281-7.4727 7.4492-7.5039zm-23.91 121.3c-17.809-10.414-46.594-17.414-82.488 8.1211-35.898 25.535-69.891 6.7734-83.051-2.5195l22.402-22.402c2.5234-2.4961 2.6484-6.5352 0.27734-9.1836l-15.062-16.801c30.754 4.5156 61.883-5.2852 84.504-26.598 39.199-34.832 80.191-9.5742 90.664-2.1289v85.008c-5.1406-5.2266-10.941-9.7617-17.246-13.496z"/>
  <use x="70" y="644" xlink:href="#v"/>
  <use x="90.550781" y="644" xlink:href="#b"/>
  <use x="104.359375" y="644" xlink:href="#a"/>
  <use x="123.347656" y="644" xlink:href="#j"/>
  <use x="142.242188" y="644" xlink:href="#e"/>
  <use x="155.628906" y="644" xlink:href="#a"/>
  <use x="174.617188" y="644" xlink:href="#g"/>
  <use x="204.410156" y="644" xlink:href="#d"/>
  <use x="224.453125" y="644" xlink:href="#f"/>
  <use x="252.453125" y="644" xlink:href="#i"/>
  <use x="271.550781" y="644" xlink:href="#f"/>
  <use x="289.804688" y="644" xlink:href="#h"/>
  <use x="299.398438" y="644" xlink:href="#a"/>
  <use x="318.390625" y="644" xlink:href="#b"/>
  <use x="341.945312" y="644" xlink:href="#u"/>
  <use x="364.929688" y="644" xlink:href="#c"/>
  <use x="384.164062" y="644" xlink:href="#d"/>
  <use x="404.210938" y="644" xlink:href="#d"/>
  <use x="424.25" y="644" xlink:href="#a"/>
  <use x="443.242188" y="644" xlink:href="#b"/>
  <use x="457.050781" y="644" xlink:href="#g"/>
  <use x="477.09375" y="644" xlink:href="#t"/>
  <use x="486.691406" y="644" xlink:href="#a"/>
  <use x="505.679687" y="644" xlink:href="#h"/>
  <use x="70" y="672" xlink:href="#s"/>
  <use x="82.183594" y="672" xlink:href="#b"/>
  <use x="95.992188" y="672" xlink:href="#c"/>
  <use x="115.226562" y="672" xlink:href="#r"/>
  <use x="154.152344" y="672" xlink:href="#e"/>
  <use x="167.535156" y="672" xlink:href="#q"/>
  <use x="187.46875" y="672" xlink:href="#a"/>
  <use x="216.207031" y="672" xlink:href="#p"/>
  <use x="239.640625" y="672" xlink:href="#c"/>
  <use x="258.878906" y="672" xlink:href="#o"/>
  <use x="278.8125" y="672" xlink:href="#n"/>
  <use x="308.492188" y="672" xlink:href="#m"/>
  <use x="329.015625" y="672" xlink:href="#b"/>
  <use x="342.820312" y="672" xlink:href="#c"/>
  <use x="362.058594" y="672" xlink:href="#l"/>
  <use x="371.65625" y="672" xlink:href="#a"/>
  <use x="390.648438" y="672" xlink:href="#k"/>
  <use x="407.242188" y="672" xlink:href="#e"/>
 </g>
</svg>
